<?xml version="1.0" standalone="no"?>
<!DOCTYPE svg PUBLIC "-//W3C//DTD SVG 20010904//EN"
 "http://www.w3.org/TR/2001/REC-SVG-20010904/DTD/svg10.dtd">
<svg version="1.0" xmlns="http://www.w3.org/2000/svg"
 width="768.000000pt" height="768.000000pt" viewBox="0 0 768.000000 768.000000"
 preserveAspectRatio="xMidYMid meet">
<metadata>
Created by potrace 1.14, written by Peter Selinger 2001-2017
</metadata>
<g transform="translate(0.000000,768.000000) scale(0.100000,-0.100000)"
fill="#000000" stroke="none">
<path d="M2498 7515 c-2 -1 -30 -6 -63 -9 -81 -9 -145 -17 -175 -22 -14 -3
-40 -7 -59 -10 -19 -2 -55 -9 -80 -15 -25 -6 -57 -13 -71 -15 -14 -3 -50 -12
-80 -20 -30 -9 -59 -17 -65 -18 -42 -9 -224 -74 -300 -106 -209 -90 -498 -260
-590 -347 -8 -7 -16 -13 -20 -13 -18 0 -279 -251 -336 -324 -13 -16 -34 -41
-47 -55 -13 -14 -53 -66 -88 -116 -35 -49 -67 -94 -72 -100 -34 -42 -158 -271
-208 -385 -33 -77 -120 -313 -129 -350 -2 -8 -12 -51 -24 -95 -11 -44 -22 -91
-25 -105 -3 -14 -7 -34 -9 -45 -37 -168 -52 -326 -52 -570 0 -229 8 -353 31
-475 21 -109 36 -187 38 -195 2 -5 6 -23 10 -40 10 -39 46 -165 54 -185 3 -8
6 -19 7 -25 4 -18 72 -190 94 -238 12 -26 26 -57 31 -69 55 -127 233 -399 344
-526 60 -69 251 -258 301 -297 27 -22 55 -44 62 -50 30 -24 43 -34 132 -94 52
-34 103 -67 115 -72 12 -5 35 -18 51 -28 63 -40 336 -167 375 -175 3 -1 10 -4
15 -7 13 -8 245 -83 305 -99 71 -19 72 -19 126 -31 28 -6 51 -16 51 -22 2 -56
27 -288 38 -367 12 -78 13 -84 19 -110 3 -14 7 -38 10 -55 2 -16 9 -52 16 -80
6 -27 13 -59 16 -69 2 -10 8 -33 14 -51 6 -18 12 -41 14 -51 20 -95 129 -327
209 -444 47 -67 55 -77 147 -170 171 -174 332 -282 575 -385 49 -21 258 -93
288 -100 12 -2 42 -9 67 -16 25 -6 54 -13 65 -15 11 -2 31 -6 45 -9 67 -15
242 -44 305 -50 242 -25 328 -29 550 -29 203 0 347 6 435 18 19 3 55 8 80 11
66 9 173 26 190 30 3 1 23 5 45 9 112 22 250 60 375 104 41 15 78 26 83 24 4
-1 7 2 7 8 0 5 9 10 20 10 11 0 20 4 20 8 0 5 6 9 13 9 35 0 242 113 369 203
89 62 287 249 338 318 14 19 30 39 35 45 21 24 85 127 85 136 0 5 4 11 8 13
12 4 112 212 112 232 0 9 5 16 11 16 5 0 8 4 5 8 -3 5 2 22 10 38 9 16 15 29
14 29 -1 0 7 32 18 70 26 85 60 231 67 282 2 21 7 49 10 63 3 14 8 47 10 74 3
27 8 65 10 85 14 117 18 314 20 991 2 676 6 855 20 963 3 18 7 56 11 86 4 43
34 199 48 256 17 68 29 95 44 99 9 2 33 8 52 12 19 4 42 9 50 11 24 6 51 10
120 17 98 11 125 16 220 40 63 17 144 72 179 122 20 29 21 42 19 164 l-3 134
-30 8 c-41 12 -123 29 -160 34 -16 2 -50 7 -75 10 -59 9 -308 8 -485 -1 -176
-10 -520 -9 -690 0 -142 8 -610 11 -662 5 -18 -2 -45 -14 -59 -27 -83 -71
-117 -177 -92 -287 22 -98 54 -128 171 -156 123 -30 128 -31 262 -46 28 -3 61
-7 75 -8 14 -2 60 -7 103 -11 67 -6 80 -11 87 -29 9 -20 31 -121 36 -161 1
-11 5 -31 8 -45 3 -14 8 -45 11 -70 3 -25 7 -56 10 -70 11 -63 22 -196 31
-400 10 -209 9 -1414 -1 -1520 -11 -114 -13 -134 -15 -140 -1 -3 -2 -8 -1 -12
0 -4 -7 -42 -15 -85 -9 -43 -18 -85 -19 -93 -2 -8 -4 -15 -5 -15 -1 0 -4 -11
-7 -25 -7 -35 -9 -42 -21 -73 -7 -16 -12 -31 -12 -35 0 -4 -13 -40 -30 -80
-80 -197 -191 -347 -350 -476 -54 -44 -182 -128 -200 -132 -3 0 -31 -13 -63
-27 -134 -62 -325 -112 -512 -134 -78 -9 -431 -9 -515 0 -74 9 -105 13 -175
27 -27 6 -60 12 -72 14 -106 21 -280 84 -383 139 -62 34 -143 88 -148 100 -2
4 -8 7 -13 7 -9 0 -130 119 -159 156 -96 125 -156 239 -205 389 -16 47 -53
197 -60 240 -2 11 -8 47 -14 80 -5 33 -13 78 -17 100 -3 22 -7 58 -8 80 -1 39
-1 39 49 51 265 64 561 182 794 316 77 45 268 172 281 187 3 3 28 24 55 46 64
51 235 221 307 305 51 60 176 228 205 275 81 133 166 296 218 420 21 49 95
263 100 288 2 10 13 50 24 90 20 77 37 157 47 222 3 22 7 47 9 55 2 8 7 44 11
80 3 36 8 68 10 71 4 7 17 275 15 299 -1 8 -1 31 0 50 1 44 2 38 -5 140 -13
187 -31 307 -82 538 -34 157 -122 394 -216 585 -39 78 -75 144 -79 145 -5 2
-9 8 -9 14 0 18 -126 202 -209 304 -129 161 -279 306 -420 406 -36 26 -70 51
-76 56 -26 21 -190 115 -272 156 -128 64 -319 140 -403 161 -3 1 -12 5 -20 8
-16 7 -160 43 -200 51 -14 2 -32 7 -40 10 -8 2 -33 7 -55 10 -22 3 -49 7 -60
10 -11 2 -49 7 -85 11 -36 4 -76 10 -90 12 -28 5 -497 13 -502 8z m292 -580
c72 -9 240 -49 310 -73 105 -37 299 -140 308 -163 2 -5 8 -9 14 -9 35 0 348
-305 348 -340 0 -5 4 -10 8 -10 27 0 223 -345 271 -477 12 -32 25 -65 28 -73
3 -8 7 -18 8 -22 2 -5 3 -9 5 -10 1 -2 3 -10 5 -18 15 -57 45 -159 53 -181 6
-15 8 -29 6 -32 -3 -3 -1 -14 5 -25 5 -10 12 -32 15 -48 7 -34 15 -78 35 -174
17 -82 24 -129 36 -240 2 -19 8 -66 12 -105 16 -144 8 -610 -13 -706 -3 -13
-7 -44 -10 -68 -6 -60 -38 -198 -72 -316 -71 -242 -173 -450 -297 -605 -42
-52 -197 -201 -252 -242 -32 -24 -60 -46 -63 -49 -11 -13 -225 -139 -236 -139
-6 0 -17 -7 -24 -15 -7 -8 -16 -13 -20 -10 -4 2 -16 -2 -26 -10 -25 -19 -61
-20 -45 -2 6 8 8 17 4 20 -9 10 -10 178 0 184 4 2 3 12 -1 21 -10 20 -8 1049
2 1192 4 52 11 111 16 130 21 77 104 126 226 135 33 2 95 7 139 11 44 3 103 8
130 9 134 8 207 93 209 245 0 63 -4 84 -27 129 -31 61 -44 74 -102 101 -38 17
-86 18 -960 19 -863 1 -1207 5 -1223 14 -19 11 -108 -51 -139 -97 -43 -62 -51
-94 -49 -186 2 -124 47 -181 161 -204 81 -16 134 -23 247 -31 42 -3 85 -8 95
-9 49 -10 112 -30 145 -47 32 -16 38 -25 47 -71 12 -64 22 -139 27 -193 2 -22
6 -69 10 -105 7 -72 7 -439 -1 -890 -3 -162 -5 -303 -5 -312 0 -14 -11 -11
-62 19 -68 39 -180 113 -188 123 -3 3 -16 14 -30 23 -68 47 -193 173 -305 308
-28 33 -138 197 -157 234 -9 17 -33 64 -55 105 -50 95 -103 219 -142 335 -35
102 -90 313 -97 365 -2 19 -7 46 -10 60 -3 13 -8 40 -10 60 -2 19 -7 46 -9 60
-3 14 -7 50 -11 80 -3 30 -8 71 -11 90 -9 60 -11 542 -3 605 5 33 11 83 14
110 11 98 58 323 78 374 5 14 11 33 13 41 9 42 63 176 106 265 63 131 143 258
225 357 60 73 93 106 173 176 44 38 192 135 207 135 8 0 14 3 14 7 0 4 28 19
63 34 34 15 74 34 89 42 15 8 29 14 30 13 2 -1 32 7 68 19 76 24 204 51 275
58 27 3 51 7 53 8 5 6 265 -1 322 -9z"/>
</g>
</svg>
