<?xml version="1.0" standalone="no"?>
<!DOCTYPE svg PUBLIC "-//W3C//DTD SVG 20010904//EN"
 "http://www.w3.org/TR/2001/REC-SVG-20010904/DTD/svg10.dtd">
<svg version="1.0" xmlns="http://www.w3.org/2000/svg"
 width="601.000000pt" height="601.000000pt" viewBox="0 0 601.000000 601.000000"
 preserveAspectRatio="xMidYMid meet">
<metadata>
Created by potrace 1.14, written by Peter Selinger 2001-2017
</metadata>
<g transform="translate(0.000000,601.000000) scale(0.100000,-0.100000)"
fill="#000000" stroke="none">
<path d="M2805 5295 c-158 -34 -318 -142 -484 -329 -180 -200 -338 -506 -402
-772 -90 -378 -57 -826 83 -1123 123 -260 335 -476 583 -592 172 -81 279 -90
311 -26 19 36 22 243 4 285 -6 15 -27 39 -48 54 -35 25 -178 145 -252 212 -19
17 -71 62 -115 100 -44 38 -127 112 -185 165 -58 54 -126 117 -153 141 -26 23
-45 45 -43 47 4 4 217 -146 441 -312 39 -29 104 -77 145 -107 41 -30 104 -81
139 -112 35 -32 65 -55 68 -52 8 8 3 289 -7 330 -7 31 -23 52 -72 95 -35 31
-103 95 -153 142 -145 139 -191 182 -362 336 -90 81 -161 148 -158 151 15 16
498 -357 660 -510 57 -55 80 -65 101 -47 16 13 12 74 -7 93 -12 13 -11 73 2
97 17 33 14 131 -6 169 -25 50 -90 126 -246 285 -174 179 -341 366 -333 374 3
3 11 -1 17 -9 7 -8 26 -24 42 -34 41 -26 197 -162 378 -329 82 -76 151 -137
152 -135 9 8 11 273 3 339 -11 92 -32 139 -94 210 -68 76 -237 304 -246 331
-8 22 -7 22 7 4 52 -68 330 -336 348 -336 7 0 8 75 3 233 -3 128 -3 262 1 297
l8 65 7 -75 c3 -41 4 -182 1 -314 -6 -215 -5 -238 10 -235 9 2 95 82 191 177
97 96 176 171 176 168 0 -13 -202 -268 -267 -337 -82 -86 -103 -126 -103 -199
0 -39 3 -50 16 -50 13 0 15 -6 9 -27 -22 -89 -36 -303 -19 -303 11 0 233 200
336 302 54 53 144 136 201 184 56 48 113 97 126 108 17 15 21 16 15 4 -5 -9
-115 -124 -245 -256 -259 -263 -360 -381 -411 -480 -29 -58 -33 -77 -36 -159
-2 -51 -1 -93 3 -93 4 0 15 10 26 23 15 18 18 19 19 5 0 -9 -4 -19 -9 -22 -32
-20 -68 -166 -41 -166 5 0 31 19 58 43 26 23 79 69 117 102 178 156 411 341
550 435 28 19 60 43 72 54 13 11 25 17 28 14 3 -2 -23 -27 -58 -55 -86 -69
-369 -324 -502 -452 -211 -203 -265 -274 -265 -346 0 -39 2 -40 32 -24 19 10
20 9 13 -7 -39 -94 -57 -204 -34 -204 18 0 144 92 629 461 91 69 179 134 195
144 l30 17 -30 -27 c-16 -15 -68 -59 -114 -98 -213 -182 -405 -349 -499 -435
-57 -51 -118 -102 -136 -113 -52 -30 -60 -58 -64 -221 l-4 -148 85 0 c91 0
183 23 269 66 26 13 50 24 53 24 12 0 4 -256 -11 -328 -52 -256 -223 -460
-491 -587 -195 -93 -304 -116 -593 -121 -124 -3 -236 -8 -250 -11 -39 -10 100
-31 285 -43 425 -29 812 48 1079 214 217 135 315 233 498 494 94 134 228 441
228 522 0 19 -9 36 -27 49 -27 22 -137 59 -258 86 -38 9 -71 18 -73 20 -2 2
18 32 43 67 151 204 245 514 245 808 0 416 -81 721 -274 1035 -103 167 -156
233 -280 352 -124 119 -236 188 -351 216 -87 22 -258 28 -330 12z"/>
<path d="M4199 2573 c-6 -15 -21 -55 -34 -88 -32 -83 -176 -363 -228 -440 -23
-35 -93 -125 -156 -200 -84 -102 -110 -140 -102 -148 17 -17 204 -21 286 -7
65 11 155 49 275 116 49 27 82 28 233 2 37 -6 70 -9 73 -5 3 3 -8 35 -25 70
-31 66 -57 91 -106 103 l-27 7 6 91 c4 50 9 118 12 151 6 54 3 66 -24 120 -17
33 -42 85 -55 115 -25 59 -67 114 -98 131 -16 8 -21 5 -30 -18z"/>
<path d="M1782 919 c3 -323 4 -332 23 -335 11 -2 32 -1 48 2 27 6 27 7 27 83
0 72 2 79 28 104 34 33 32 35 116 -99 l56 -92 46 3 c25 1 47 5 51 8 3 3 -34
67 -81 142 -47 74 -86 139 -86 143 0 4 21 31 48 60 54 60 92 108 92 116 0 3
-25 6 -55 6 l-54 0 -62 -72 c-34 -40 -67 -78 -75 -84 -8 -6 -13 -13 -11 -15 1
-2 -1 -2 -5 1 -4 3 -9 84 -10 180 l-3 175 -48 3 -47 3 2 -332z"/>
<path d="M2238 973 c-3 -241 -1 -283 13 -313 25 -53 53 -72 109 -78 l50 -5 0
47 c0 33 -4 46 -14 46 -22 0 -55 33 -60 60 -3 14 -5 136 -5 273 l-1 247 -45 0
-45 0 -2 -277z"/>
<path d="M3720 1156 l0 -95 -60 6 c-104 10 -192 -44 -236 -144 -21 -48 -21
-176 -1 -226 18 -42 61 -88 100 -105 31 -13 141 -15 172 -3 11 5 31 4 44 -1
14 -5 37 -6 53 -3 l28 7 -2 326 -3 327 -47 3 -48 3 0 -95z m-22 -192 c21 -14
22 -22 22 -139 0 -122 0 -124 -26 -144 -15 -12 -38 -21 -51 -21 -36 0 -85 26
-107 57 -21 29 -34 120 -21 150 5 10 9 24 11 32 4 19 45 62 69 71 32 14 79 11
103 -6z"/>
<path d="M881 1227 c-50 -16 -127 -93 -147 -147 -37 -104 -28 -297 19 -378 26
-45 82 -97 123 -113 38 -14 141 -14 192 2 126 37 198 200 172 388 -18 132 -75
215 -169 248 -43 15 -143 15 -190 0z m188 -116 c81 -64 95 -271 25 -373 -33
-47 -76 -67 -132 -63 -58 5 -114 55 -127 113 -30 132 -30 129 -10 206 28 115
82 161 175 149 19 -2 50 -17 69 -32z"/>
<path d="M3930 910 l0 -320 45 0 45 0 0 205 c0 113 4 205 9 205 7 0 100 -127
181 -246 79 -116 126 -174 142 -174 17 0 18 18 18 325 l0 325 -45 0 -45 0 -1
-197 c-1 -109 -1 -201 0 -205 0 -5 -1 -8 -3 -8 -2 0 -70 92 -152 205 -117 161
-154 205 -171 205 l-23 0 0 -320z"/>
<path d="M4490 911 l0 -321 190 0 190 0 0 45 0 45 -140 0 -140 0 -2 273 -3
272 -47 3 -48 3 0 -320z"/>
<path d="M4940 911 l0 -321 50 0 50 0 0 118 0 117 63 1 c164 2 245 79 235 226
-8 130 -71 170 -270 176 l-128 4 0 -321z m232 215 c55 -23 75 -61 64 -122 -10
-51 -64 -84 -138 -84 l-58 0 0 110 0 110 49 0 c27 0 64 -6 83 -14z"/>
<path d="M1410 1064 c-44 -15 -90 -38 -90 -46 0 -7 27 -67 35 -76 1 -1 22 7
47 18 43 19 83 21 120 5 20 -8 52 -54 44 -62 -3 -4 -30 -7 -60 -8 -65 -3 -131
-32 -170 -74 -24 -25 -30 -42 -33 -88 -5 -65 15 -108 62 -139 35 -23 127 -20
179 6 39 19 39 19 64 0 15 -12 40 -20 63 -20 35 0 39 3 39 25 0 14 -9 34 -20
45 -18 18 -20 33 -20 143 0 136 -9 183 -45 225 -35 41 -152 66 -215 46z m144
-250 c12 -4 16 -20 16 -54 0 -42 -4 -52 -31 -74 -56 -47 -139 -27 -139 33 0
64 90 120 154 95z"/>
<path d="M2560 1059 c-68 -21 -86 -55 -51 -96 l18 -22 52 19 c70 27 97 25 132
-9 16 -16 29 -34 29 -39 0 -5 -28 -13 -62 -16 -77 -9 -134 -33 -172 -75 -24
-25 -30 -42 -33 -88 -5 -68 17 -112 68 -138 42 -22 122 -21 169 3 36 18 38 18
71 0 40 -21 88 -23 95 -4 3 8 -4 32 -15 55 -18 34 -21 57 -20 158 1 139 -12
184 -64 227 -31 25 -46 29 -109 32 -40 2 -89 -1 -108 -7z m173 -248 c4 0 7
-24 5 -53 -3 -47 -7 -55 -37 -75 -62 -42 -131 -22 -131 37 0 65 71 104 163 91z"/>
<path d="M3110 1063 c-8 -3 -27 -14 -42 -25 -27 -18 -27 -18 -38 2 -8 14 -21
20 -46 20 l-34 0 2 -237 c3 -227 4 -236 23 -239 11 -2 32 -1 48 2 l27 6 0 163
c0 90 3 171 6 180 9 23 57 45 98 45 25 0 40 -7 55 -26 19 -25 21 -40 21 -195
0 -159 1 -168 20 -174 11 -4 34 -4 50 0 l30 7 0 181 c-1 200 -8 230 -62 270
-28 21 -126 33 -158 20z"/>
</g>
</svg>
